<svg xmlns="http://www.w3.org/2000/svg" viewBox="0 0 24 24">
    <defs>
        <style>.cls-1{fill:#fff;}</style>
    </defs>
    <title>outline_local_movies_24</title>
    <g id="Layer_2">
        <g id="Layer_1-2">
            <path class="cls-1"
                d="M0,4.41a6.56,6.56,0,0,1,.35-.76A1.48,1.48,0,0,1,1.54,3h.7v.34A2.18,2.18,0,0,0,2.46,4.5a1.49,1.49,0,0,0,2.77-.57c0-.3,0-.6,0-.91h9v.55a1.86,1.86,0,0,0,.22.94,1.51,1.51,0,0,0,1.6.71,1.5,1.5,0,0,0,1.17-1.31,8.61,8.61,0,0,0,0-.88,1.78,1.78,0,0,1,2.07.89,1.58,1.58,0,0,1,.17.71c0,1.91,0,3.82,0,5.74a.74.74,0,0,1,0,.12H18v-3H1.5V17.65c0,.34,0,.36.35.36h8.64v1.48H1.77A1.63,1.63,0,0,1,0,18.16l0-.06Z" />
            <path class="cls-1"
                d="M17.52,24c-.36-.07-.72-.12-1.07-.21A5.72,5.72,0,0,1,13.52,22a6,6,0,0,1,.74-8.65A5.78,5.78,0,0,1,18.58,12,6,6,0,0,1,24,17.34c0,.06,0,.12,0,.18v1c0,.06,0,.12,0,.18A6,6,0,0,1,22.48,22a6,6,0,0,1-2.93,1.81c-.35.09-.71.14-1.07.21ZM18,13.5A4.5,4.5,0,1,0,22.5,18,4.51,4.51,0,0,0,18,13.5Z" />
            <path class="cls-1"
                d="M3.91,0a.84.84,0,0,1,.58.94c0,.93,0,1.86,0,2.79a.74.74,0,0,1-1,.72A.72.72,0,0,1,3,3.71c0-.65,0-1.3,0-1.95C3,1.51,3,1.25,3,1a.9.9,0,0,1,.56-1Z" />
            <path class="cls-1"
                d="M16,0l.14.09a.7.7,0,0,1,.4.63c0,1,0,2,0,3.07a.69.69,0,0,1-.71.7A.72.72,0,0,1,15,3.81c0-.36,0-.73,0-1.09,0-.57,0-1.15,0-1.72a.91.91,0,0,1,.57-1Z" />
            <path class="cls-1" d="M6,12H3V9H6Z" />
            <path class="cls-1" d="M7.52,12V9h3v3Z" />
            <path class="cls-1" d="M15,9v3H12V9Z" />
            <path class="cls-1" d="M10.49,16.48h-3v-3h3Z" />
            <path class="cls-1" d="M6,16.48H3v-3H6Z" />
            <path class="cls-1"
                d="M17.46,19.23l.82-.85,1.83-1.82a.74.74,0,0,1,1.08,0,.76.76,0,0,1,0,1.06l-.86.86L18.08,20.7a.76.76,0,0,1-1.2,0l-2-2a.73.73,0,0,1-.2-.79.72.72,0,0,1,.64-.5.65.65,0,0,1,.55.18L17.3,19C17.35,19.07,17.38,19.13,17.46,19.23Z" />
        </g>
    </g>
</svg>