<svg xmlns="http://www.w3.org/2000/svg" viewBox="0 0 17.05 24">
    <title>outline_outlined_flag_24outline_outlined_flag_24</title>
    <g id="Layer_2">
        <g id="Layer_1-2">
            <path
                d="M12.15,8.43v3.33c0,.45-.12.58-.57.58H5.45c-.42,0-.55-.14-.55-.57V8.44H1.6c-.22,0-.41,0-.51-.25s0-.39.17-.54l2.9-3.13a.62.62,0,0,1,.14-.14.31.31,0,0,1,.42,0,.32.32,0,0,1,.07.44,2.83,2.83,0,0,1-.32.37L2.29,7.53s-.08.11-.17.22H5.06c.39,0,.51.12.51.51,0,.86,0,1.73,0,2.59,0,.25,0,.5,0,.77h5.83c0-.84,0-1.67,0-2.5,0-1.59,0-1.36,1.39-1.37h2.09a1.64,1.64,0,0,0-.15-.22L9.92,2.32C9.51,1.87,9.09,1.43,8.69,1c-.13-.14-.2-.14-.33,0C7.59,1.83,6.8,2.66,6,3.5a1.14,1.14,0,0,1-.19.19.34.34,0,0,1-.47,0,.28.28,0,0,1,0-.42c.14-.17.29-.33.44-.49C6.58,1.9,7.35,1.06,8.13.23c.28-.3.51-.31.79,0q3.44,3.72,6.88,7.42c.14.16.27.32.16.55s-.31.24-.52.24H12.15Z" />
            <path
                d="M6.05,13.61l.7,1.84q1,2.55,1.93,5.1l1,2.58a.25.25,0,0,0,.27.18h1.77c.16,0,.24,0,.29-.19.43-1.15.87-2.3,1.31-3.45.29-.78.58-1.56.88-2.34l.06-.15a.36.36,0,0,1,.47-.2.32.32,0,0,1,.15.44c-.13.36-.27.72-.41,1.08l-1.92,5.06c-.14.38-.23.44-.63.44H9.72c-.38,0-.48-.07-.61-.43l-2.9-7.64-.87-2.3c-.18-.49,0-.7.48-.71H7.94c.46,0,.52,0,.68.47C9.31,15.22,10,17,10.7,18.87l.11.29.32-.81c.63-1.67,1.26-3.35,1.9-5,.13-.34.21-.4.58-.41h2.24c.45,0,.61.23.46.64-.28.75-.56,1.49-.85,2.23-.09.26-.27.37-.43.3s-.28-.29-.18-.55c.2-.53.41-1.07.6-1.6,0-.1.05-.2.09-.34H14.09c-.46,0-.46,0-.62.43-.75,2-1.5,4-2.24,5.95,0,0,0,.1-.07.13s-.24.27-.36.26a.49.49,0,0,1-.35-.28c-.39-1-.76-2-1.14-3S8.47,14.88,8,13.77a.23.23,0,0,0-.17-.15Z" />
            <path
                d="M6.55,23.28V21.37H5.72c-.17,0-.33,0-.4-.23a.3.3,0,0,1,.26-.44c.44,0,.87,0,1.31,0a.35.35,0,0,1,.35.39c0,.82,0,1.65,0,2.47a.43.43,0,0,1-.45.44H.46A.44.44,0,0,1,0,23.56v-10c0-.48.11-.59.6-.59H2.79c.4,0,.53.13.53.53v7.24h.61c.23,0,.37.12.37.31a.34.34,0,0,1-.35.36,6.91,6.91,0,0,1-.91,0,.39.39,0,0,1-.41-.4V13.63H.71v9.65Z" />
            <path
                d="M15.4,20.69a1.65,1.65,0,0,1,1.65,1.66,1.66,1.66,0,0,1-3.32,0A1.65,1.65,0,0,1,15.4,20.69Zm1,1.65a1,1,0,1,0-1,.95A.94.94,0,0,0,16.35,22.34Z" />
        </g>
    </g>
</svg>