<svg xmlns="http://www.w3.org/2000/svg" viewBox="0 0 20.19 24">
    <defs>
        <style>.cls-1{fill:#fff;}</style>
    </defs>
    <title>ic_subscriptions_black_24dp</title>
    <g id="Layer_2">
        <g id="Layer_1-2">
            <path class="cls-1"
                d="M18.93,22.73V21.32c0-.13,0-.26,0-.4a.64.64,0,0,1,.6-.56.6.6,0,0,1,.63.56c0,.84,0,1.67,0,2.5a.57.57,0,0,1-.58.57H3.16A3,3,0,0,1,.1,21.66,3.17,3.17,0,0,1,0,20.84Q0,11.95,0,3.05A3.06,3.06,0,0,1,2.93,0c1,0,1.94,0,2.9,0H19.24c.78,0,1,.16,1,.93V18.21c0,.75-.21,1-1,1h-16a1.79,1.79,0,0,0-.45,3.54,2.69,2.69,0,0,0,.4,0q7.77,0,15.54,0ZM11.1,5.29V15.56h3V3.35h-3l-.11,0-2.67,1c-.09,0-.21.14-.21.22,0,.55,0,1.11,0,1.72ZM3.49,9.47v6.18c0,.11,0,.22,0,.34a.61.61,0,0,0,.68.53c.37,0,.56-.3.56-.81V3.3c0-.58-.22-.88-.64-.87s-.61.3-.61.87Z" />
        </g>
    </g>
</svg>