<svg xmlns="http://www.w3.org/2000/svg" viewBox="0 0 24 16.43">
    <title>outline_movie_24</title>
    <g id="Layer_2">
        <g id="Layer_1-2">
            <path
                d="M1.58,2.05V.6c0-.42.18-.6.63-.6C4.64,0,7.07,0,9.5,0A3.88,3.88,0,0,1,12,1,4.63,4.63,0,0,1,15.4,0c2.11,0,4.21,0,6.32,0,.52,0,.72.2.7.7s0,.85,0,1.32l.58,0c1,0,1,0,1,1v8.75c0,1.32,0,2.63,0,3.95,0,.49-.19.66-.68.66H.69c-.52,0-.69-.2-.69-.7,0-4.32,0-8.65,0-13,0-.65.06-.71.71-.71Zm19.9,12.08V.9c-2.34,0-4.64,0-6.93,0a3.92,3.92,0,0,0-1.3.31,1.19,1.19,0,0,0-.82,1.24c0,3.9,0,7.81,0,11.71,0,.17,0,.33,0,.54a5.25,5.25,0,0,1,2.71-.59C17.26,14.14,19.34,14.13,21.48,14.13Zm-9.91.61c0-4.24,0-8.38,0-12.51a1.09,1.09,0,0,0-.45-.78A2.29,2.29,0,0,0,9.92,1C8.37.92,6.83.91,5.29.89H2.52V14.13h.61c1.82,0,3.63,0,5.45,0A5.43,5.43,0,0,1,11.57,14.74ZM22.42,2.94V14.15c0,.8-.07.87-.85.87-2.3,0-4.61,0-6.91,0a9.92,9.92,0,0,0-1.61.3l0,.16h10V2.94Zm-21.5,0V15.52h10a.57.57,0,0,1,0-.18,9.41,9.41,0,0,0-1.64-.29C7,15,4.71,15,2.41,15c-.74,0-.83-.08-.83-.83V3Z" />
            <path
                d="M17,7.15h2.32c.33,0,.63.07.61.49s-.31.43-.61.43H14.71c-.32,0-.65,0-.65-.46s.32-.46.65-.46Z" />
            <path
                d="M17,10.93H14.62c-.3,0-.55-.08-.56-.43s.23-.45.54-.45h4.75c.31,0,.55.08.56.43s-.22.45-.54.45Z" />
            <path
                d="M17,4.31h2.32c.29,0,.56,0,.57.41s-.25.48-.58.48H14.64c-.34,0-.59-.11-.57-.48s.29-.41.58-.41Z" />
            <path
                d="M7.08,7.16H9.29c.33,0,.65,0,.65.45s-.33.46-.65.46H4.71c-.3,0-.61,0-.62-.42s.28-.49.61-.49Z" />
            <path
                d="M7,10.93H4.7c-.31,0-.6,0-.61-.43s.26-.45.59-.45H9.32c.31,0,.6,0,.61.43s-.26.45-.59.45Z" />
            <path
                d="M7,4.31H9.36c.32,0,.64.07.56.45a.71.71,0,0,1-.54.42c-1.57,0-3.14,0-4.7,0-.33,0-.58-.1-.58-.47s.27-.42.56-.42Z" />
        </g>
    </g>
</svg>