<svg xmlns="http://www.w3.org/2000/svg" viewBox="0 0 17.46 24">
    <title>outline_person_24</title>
    <g id="Layer_2">
        <g id="Layer_1-2">
            <g id="Layer_2-2">
                <g id="Layer_1-2-2">
                    <path
                        d="M0,10.9v-8A2.71,2.71,0,0,1,1.82.17a3.63,3.63,0,0,1,1-.16h9.58a2.72,2.72,0,0,1,2.76,2.07.32.32,0,0,0,.19.19A2.73,2.73,0,0,1,17.45,5q0,8.06,0,16.13A2.73,2.73,0,0,1,14.61,24H5a2.75,2.75,0,0,1-2.76-2.07.34.34,0,0,0-.19-.2A2.72,2.72,0,0,1,0,19Zm14.18,2.21H1.1v5.83a1.65,1.65,0,0,0,1.8,1.79h9.47a1.66,1.66,0,0,0,1.81-1.81V13.11Zm0-1.12c0-.09,0-.15,0-.22V2.83A1.63,1.63,0,0,0,12.45,1.1H2.85A1.62,1.62,0,0,0,1.1,2.86v8.86c0,.09,0,.18,0,.27H2.74a2.67,2.67,0,0,1,0-.4,4.7,4.7,0,0,1,.2-1A2.5,2.5,0,0,1,4.11,9.23l1-.6a3.29,3.29,0,0,1,.25-4.42,3.24,3.24,0,0,1,4.23-.28,3.14,3.14,0,0,1,1.23,1.85,3.3,3.3,0,0,1-.64,2.85c.37.22.73.43,1.08.66a2.64,2.64,0,0,1,1.27,2c0,.22,0,.45,0,.68Zm1.1-8.59V18.91a3.71,3.71,0,0,1-.08.81,2.7,2.7,0,0,1-2.7,2.1H3.4a.25.25,0,0,0,0,.08.11.11,0,0,0,0,.07A1.61,1.61,0,0,0,5,22.9h9.66a2.28,2.28,0,0,0,.45,0,1.63,1.63,0,0,0,1.25-1.72V5.06c0-.11,0-.22,0-.33A1.55,1.55,0,0,0,15.27,3.4ZM11.43,12a1.7,1.7,0,0,0-.84-1.83c-.38-.23-.76-.47-1.14-.68a.35.35,0,0,0-.3,0,3.35,3.35,0,0,1-3,0,.31.31,0,0,0-.25,0c-.46.26-.92.52-1.36.81A1.7,1.7,0,0,0,3.84,12ZM9.81,6.56A2.18,2.18,0,1,0,7.62,8.72,2.18,2.18,0,0,0,9.81,6.56Z" />
                    <path
                        d="M7.63,16.36H3.9a.55.55,0,1,1-.15-1.08h7.72a.55.55,0,0,1,.53.55.53.53,0,0,1-.53.53H7.63Z" />
                    <path
                        d="M6.56,17.46h2.6c.42,0,.66.2.65.55s-.24.53-.64.53H3.91a.55.55,0,0,1-.6-.37.48.48,0,0,1,.18-.59.82.82,0,0,1,.43-.12C4.8,17.45,5.68,17.46,6.56,17.46Z" />
                </g>
            </g>
        </g>
    </g>
</svg>